<?xml version="1.0" encoding="utf-8"?>
<!-- Generator: Adobe Illustrator 24.1.0, SVG Export Plug-In . SVG Version: 6.00 Build 0)  -->
<svg version="1.1" id="Capa_1" xmlns="http://www.w3.org/2000/svg" xmlns:xlink="http://www.w3.org/1999/xlink" x="0px" y="0px"
	 viewBox="0 0 172 74" style="enable-background:new 0 0 172 74;" xml:space="preserve">
<g>
	<g>
		<path d="M116.9,22c0,2,0,4,0,5.9c0,0.3,0,0.6,0,0.9c0,0.4-0.2,0.7-0.6,0.9c-0.3,0.1-0.7,0.3-1,0.4c-0.2,0.1-0.5,0.1-0.7,0.2
			c-0.5,0.2-1.1,0.2-1.6,0.1c-0.5-0.1-1.1-0.2-1.6-0.4c-0.2,0-0.3-0.1-0.5-0.1c-0.7-0.2-1.3,0-1.9,0.4c-0.2,0.1-0.3,0.3-0.3,0.5
			c0,0.5,0,1.1,0,1.6c0,0.4-0.1,0.9-0.3,1.2c-0.4,0.6-0.7,1.3-1,1.9c-0.2,0.4-0.5,0.5-0.8,0.5c-0.7,0-1.5,0.1-2.2,0.1
			c-1,0.1-2,0.1-3,0.2c-1.1,0.1-2.2,0.1-3.3,0.2c-0.6,0-1.3,0.1-1.9,0.1c-0.4,0-0.7,0.2-0.9,0.5c-0.1,0.1-0.1,0.1-0.2,0.2
			c-0.4,0.4-0.6,0.8-0.5,1.4c0,1.4,0,2.8,0,4.2c0,1.4,0,2.7,0,4.1c0,0.5-0.3,0.9-0.6,1.3c-0.2,0.2-0.4,0.3-0.7,0.3
			c-0.8,0-1.5,0.1-2.3,0.1c-2.4,0-4.8,0-7.1,0c-1.2,0-2.4,0-3.6-0.1c-0.5,0-0.5-0.1-0.6-0.5c0-0.9,0-1.9,0-2.8
			c-0.1-1.7-0.1-3.4-0.2-5.1c0-0.1,0-0.2,0-0.2c0-0.2-0.1-0.3-0.3-0.3c-0.2,0-0.3,0-0.5,0c-1,0-2-0.1-3-0.1c-0.3,0-0.5-0.1-0.8-0.3
			c-0.7-0.4-1.3-0.8-1.9-1.3c-0.3-0.2-0.6-0.5-0.9-0.7c-0.2-0.1-0.3-0.3-0.3-0.6c0-0.2,0-0.5,0-0.7c0-1.2,0-2.4,0-3.6
			c0-0.1,0-0.2,0-0.3c0-0.4-0.1-0.5-0.4-0.5c-0.1,0-0.2,0-0.4,0c-0.6,0-1.1-0.1-1.7-0.1c-1.1-0.1-2.2-0.1-3.3-0.2
			c-0.3,0-0.7-0.1-1-0.1c-0.6,0-1-0.4-1.3-0.9c-0.2-0.4-0.3-0.9-0.3-1.3c0-1,0-2-0.1-3c0-2.1-0.1-4.2-0.1-6.2c0-1.9-0.1-3.7-0.1-5.6
			c0-0.9,0-1.8-0.1-2.7c0-0.2,0-0.5,0-0.7c0-0.3,0.2-0.4,0.4-0.4c0.1,0,0.2,0,0.2,0c2.1,0,4.2-0.1,6.4-0.1c1.5,0,3,0,4.5,0
			c0.3,0,0.5,0,0.8,0c0.3,0,0.4,0.2,0.5,0.5c0,0.8,0.1,1.5,0.1,2.3c0,0.2,0,0.3,0,0.5c0,0.2,0.1,0.4,0.4,0.4c0.2,0,0.3,0.1,0.5,0.1
			c0.4,0,0.9,0.1,1.3,0.1c1.2,0.1,2.4,0.2,3.6,0.3c0.5,0,1,0.1,1.4,0.3c0.5,0.2,0.9,0.4,1.4,0.5c0.2,0.1,0.3,0.2,0.3,0.4
			c0,0.1,0,0.3,0,0.4c0,0.5-0.1,1,0,1.5c0,0.8-0.2,1.5-0.4,2.3c-0.1,0.5-0.3,1-0.4,1.5c-0.1,0.3-0.2,0.3-0.5,0.3
			c-0.3,0-0.6-0.1-0.9-0.1c-0.9-0.2-1.7-0.4-2.5-0.6c-0.2-0.1-0.3-0.1-0.3-0.4c0-0.3,0-0.7-0.1-1c0-0.3-0.2-0.4-0.4-0.6
			c0,0-0.1,0-0.1-0.1c-0.7-0.3-1.3-0.5-2-0.6c-0.3,0-0.5,0.1-0.6,0.3c-0.1,0.1-0.1,0.3-0.2,0.4c-0.5,1.3-1.1,2.7-1.8,3.9
			c-0.1,0.3-0.3,0.5-0.4,0.8c-0.1,0.2-0.1,0.4,0,0.6c0.1,0.3,0.3,0.5,0.5,0.7c0.6,0.4,1.3,0.7,2,0.8c0.2,0,0.4,0,0.6,0
			c0.7-0.2,1.4-0.3,2.1-0.5c0.6-0.1,0.7-0.1,0.8,0.5c0.3,1.2,0.4,2.5,0.4,3.7c0,0.3-0.2,0.6-0.5,0.7c-0.7,0.3-1.3,0.5-2,0.6
			c-0.2,0-0.4,0.1-0.6,0.1c-0.2,0-0.4,0.2-0.4,0.4c0,0.2,0,0.4,0,0.6c0,0.5,0,1,0.1,1.5c0,0.2,0.1,0.4,0.1,0.6
			c0.1,0.4,0.4,0.6,0.8,0.6c0.9,0,1.9,0.1,2.8,0.1c1,0,2,0.1,3,0.1c0.2,0,0.4,0,0.6,0.1c0.3,0.1,0.4,0.2,0.4,0.4c0,0.1,0,0.3,0,0.4
			c0,1,0,2.1,0.1,3.1c0,0.4,0.2,0.6,0.6,0.8c0.2,0.1,0.4,0.1,0.6,0.1c0.7,0.1,1.5,0.1,2.2,0.2c0.5,0.1,1-0.3,0.9-0.8
			c0-0.2,0-0.5,0-0.7c0-2,0-4,0-6c0-0.3-0.1-0.5-0.1-0.8c-0.1-0.4-0.3-0.6-0.6-0.7c-0.4-0.2-0.8-0.2-1.2-0.3c-0.5,0-0.9-0.1-1.4-0.1
			c-0.4,0-0.5-0.1-0.6-0.5c0-0.1-0.1-0.2-0.1-0.4c0-0.7,0-1.4,0-2.1c0-0.4,0.1-0.7,0.2-1c0.1-0.2,0.2-0.3,0.4-0.3c0.4,0,0.8,0,1.1,0
			c1.5,0.1,3,0.3,4.6,0.4c0.5,0,0.9,0.1,1.4,0.1c0.2,0,0.5,0.1,0.7,0.2c0.3,0.1,0.5,0.4,0.5,0.7c0,0.4,0.1,0.7,0.1,1.1
			c0.1,0.6,0.1,1.2,0.1,1.8c0,0.2,0.1,0.4,0.1,0.6c0.1,0.3,0.2,0.5,0.6,0.5c0.1,0,0.1,0,0.2,0c1.5-0.1,3-0.3,4.4-0.4
			c0.5,0,0.9-0.1,1.4-0.1c0.1,0,0.2,0,0.2,0c0.5-0.1,0.7-0.1,0.6-0.8c0-0.8,0-1.6,0-2.4c0-0.1,0-0.2,0-0.4c0-0.4-0.2-0.5-0.6-0.6
			c-0.1,0-0.1,0-0.2,0c-0.9,0.1-1.7,0.1-2.6,0.2c0,0-0.1,0-0.1,0c-0.3,0-0.4-0.1-0.4-0.3c0-0.3-0.1-0.6-0.1-0.9
			c-0.1-0.8-0.1-1.5-0.2-2.3c-0.1-0.9-0.1-1.7-0.2-2.6c0-0.5-0.1-1-0.1-1.5c0-0.3,0.1-0.4,0.4-0.5c0.1,0,0.2,0,0.4,0
			c1.1,0,2.2,0,3.3,0c0.1,0,0.1,0,0.2,0c0.2,0,0.3,0.1,0.4,0.3c0.1,0.4,0.1,0.7,0.1,1.1c0.1,0.6,0.1,1.2,0.1,1.8c0,0.1,0,0.1,0,0.2
			c0.1,0.4,0.1,0.4,0.6,0.5c0.9,0,1.7,0,2.6-0.1c0.1,0,0.2,0,0.3,0c0.2,0,0.3-0.2,0.4-0.3c0.1-0.2,0.1-0.4,0.1-0.6
			c0.1-0.6-0.1-1.2-0.1-1.8c0-0.6-0.1-1.2-0.2-1.8c-0.1-0.5-0.3-1-0.4-1.5c-0.1-0.2-0.2-0.4-0.5-0.4c-0.1,0-0.2-0.1-0.3-0.1
			c-0.7-0.2-1.4-0.3-2.1-0.5c-0.6-0.2-1.3-0.1-1.9-0.2c-0.4-0.1-0.8-0.1-1.2-0.1c-0.2,0-0.3-0.1-0.4-0.3c-0.1-0.2-0.2-0.5-0.2-0.7
			c0-1,0-2,0.1-3c0-0.3,0.1-0.3,0.4-0.3c0.9,0,1.7,0,2.6,0c1.8,0,3.6,0,5.3,0c0.1,0,0.3,0,0.4,0c0.3,0,0.5,0.1,0.7,0.3
			c0.2,0.2,0.4,0.4,0.5,0.5c0.3,0.3,0.6,0.7,1,1.1c0.3,0.4,0.7,0.6,1.2,0.6c0.7,0.1,1.4,0.2,2.2,0.3c0.9,0.1,1.8,0.3,2.7,0.4
			c0.1,0,0.1,0,0.2,0c0.6,0.1,0.7,0.3,0.7,0.9c0,0.3,0,0.6,0,0.9C116.9,18.1,116.9,20,116.9,22z"/>
	</g>
	<g>
		<path d="M20.3,54.3v5c0,0.6,0.1,1.1,0.3,1.5c0.3,0.6,0.9,0.9,1.7,0.9c0.9,0,1.6-0.3,1.9-1c0.2-0.3,0.3-0.8,0.3-1.4v-5h1.1v4.6
			c0,1-0.1,1.8-0.4,2.3c-0.5,1-1.4,1.5-2.8,1.5c-1.4,0-2.3-0.5-2.8-1.5c-0.3-0.5-0.4-1.3-0.4-2.3v-4.6H20.3z"/>
		<path d="M27.1,56.5h0.9v0.8c0.3-0.3,0.6-0.6,0.9-0.7c0.3-0.2,0.7-0.2,1-0.2c0.8,0,1.4,0.3,1.7,0.9c0.2,0.3,0.2,0.8,0.2,1.4v3.8h-1
			v-3.7c0-0.4-0.1-0.7-0.2-0.9c-0.2-0.4-0.5-0.6-1-0.6c-0.2,0-0.4,0-0.6,0.1c-0.3,0.1-0.5,0.2-0.7,0.5c-0.2,0.2-0.3,0.4-0.3,0.6
			s-0.1,0.5-0.1,0.9v3.1h-1V56.5z"/>
		<path d="M33.3,54.3h1v1.1h-1V54.3z M33.3,56.5h1v5.9h-1V56.5z"/>
		<path d="M36.3,56.5l1.6,4.8l1.6-4.8h1.1l-2.2,5.9h-1.1l-2.2-5.9H36.3z"/>
		<path d="M45,56.6c0.4,0.2,0.7,0.5,0.9,0.8c0.2,0.3,0.3,0.6,0.4,1c0.1,0.3,0.1,0.7,0.1,1.3h-4.3c0,0.6,0.2,1.1,0.4,1.4
			c0.3,0.4,0.7,0.5,1.2,0.5c0.5,0,0.9-0.2,1.2-0.5c0.2-0.2,0.3-0.4,0.4-0.7h1c0,0.2-0.1,0.5-0.3,0.7c-0.1,0.3-0.3,0.5-0.5,0.7
			c-0.3,0.3-0.7,0.5-1.1,0.6c-0.2,0.1-0.5,0.1-0.8,0.1c-0.7,0-1.4-0.3-1.9-0.8c-0.5-0.5-0.8-1.3-0.8-2.2c0-0.9,0.3-1.7,0.8-2.3
			c0.5-0.6,1.2-0.9,2-0.9C44.2,56.3,44.6,56.4,45,56.6z M45.4,58.9c0-0.4-0.1-0.8-0.3-1c-0.3-0.5-0.7-0.7-1.4-0.7
			c-0.5,0-0.8,0.2-1.1,0.5s-0.5,0.7-0.5,1.3H45.4z"/>
		<path d="M47.6,56.5h0.9v1c0.1-0.2,0.3-0.4,0.6-0.7c0.3-0.3,0.6-0.4,1-0.4c0,0,0,0,0.1,0s0.1,0,0.2,0v1c-0.1,0-0.1,0-0.2,0
			c0,0-0.1,0-0.2,0c-0.5,0-0.9,0.2-1.2,0.5c-0.3,0.3-0.4,0.7-0.4,1.1v3.4h-1V56.5z"/>
		<path d="M51.8,60.5c0,0.3,0.1,0.6,0.3,0.8c0.3,0.3,0.7,0.5,1.3,0.5c0.4,0,0.7-0.1,1-0.2c0.3-0.2,0.4-0.4,0.4-0.7
			c0-0.3-0.1-0.4-0.3-0.6c-0.1-0.1-0.4-0.2-0.9-0.3l-0.8-0.2c-0.5-0.1-0.9-0.3-1.1-0.4c-0.4-0.3-0.7-0.6-0.7-1.1
			c0-0.6,0.2-1,0.6-1.4c0.4-0.3,1-0.5,1.6-0.5c0.9,0,1.6,0.3,2,0.8c0.2,0.3,0.4,0.7,0.4,1.1h-0.9c0-0.2-0.1-0.4-0.2-0.6
			c-0.2-0.3-0.6-0.4-1.2-0.4c-0.4,0-0.7,0.1-0.9,0.2s-0.3,0.3-0.3,0.6c0,0.3,0.1,0.5,0.4,0.6c0.1,0.1,0.4,0.2,0.7,0.2l0.7,0.2
			c0.7,0.2,1.2,0.3,1.5,0.5c0.4,0.3,0.6,0.7,0.6,1.2c0,0.5-0.2,1-0.6,1.4c-0.4,0.4-1,0.6-1.8,0.6c-0.9,0-1.5-0.2-1.9-0.6
			c-0.4-0.4-0.6-0.9-0.6-1.5H51.8z"/>
		<path d="M56.8,54.3h1v1.1h-1V54.3z M56.8,56.5h1v5.9h-1V56.5z"/>
		<path d="M62.5,56.6c0.2,0.1,0.4,0.3,0.6,0.6v-3h1v8.1h-0.9v-0.8c-0.2,0.4-0.5,0.6-0.8,0.8c-0.3,0.2-0.7,0.2-1.1,0.2
			c-0.7,0-1.2-0.3-1.7-0.8c-0.5-0.6-0.7-1.3-0.7-2.2c0-0.9,0.2-1.6,0.7-2.2c0.4-0.6,1.1-0.9,1.9-0.9C61.8,56.4,62.2,56.4,62.5,56.6z
			 M60.3,61.1c0.3,0.4,0.7,0.6,1.3,0.6c0.5,0,0.8-0.2,1.1-0.6c0.3-0.4,0.4-1,0.4-1.7c0-0.7-0.2-1.3-0.5-1.7
			c-0.3-0.4-0.7-0.5-1.1-0.5c-0.5,0-0.9,0.2-1.2,0.6c-0.3,0.4-0.5,0.9-0.5,1.7C59.9,60.1,60,60.6,60.3,61.1z"/>
		<path d="M68.7,58.8c0.2,0,0.4-0.1,0.5-0.3c0-0.1,0.1-0.2,0.1-0.4c0-0.3-0.1-0.6-0.4-0.7c-0.2-0.2-0.6-0.2-1-0.2
			c-0.5,0-0.9,0.1-1.1,0.4c-0.1,0.2-0.2,0.4-0.2,0.7h-0.9c0-0.7,0.3-1.2,0.7-1.5c0.5-0.3,1-0.4,1.6-0.4c0.7,0,1.3,0.1,1.7,0.4
			c0.4,0.3,0.6,0.7,0.6,1.2v3.4c0,0.1,0,0.2,0.1,0.2c0,0.1,0.1,0.1,0.3,0.1c0,0,0.1,0,0.1,0c0.1,0,0.1,0,0.2,0v0.7
			c-0.2,0-0.3,0.1-0.4,0.1c-0.1,0-0.2,0-0.3,0c-0.3,0-0.6-0.1-0.7-0.4c-0.1-0.1-0.1-0.3-0.2-0.5c-0.2,0.3-0.5,0.5-0.9,0.7
			c-0.4,0.2-0.8,0.3-1.3,0.3c-0.5,0-1-0.2-1.3-0.5c-0.3-0.3-0.5-0.7-0.5-1.2c0-0.5,0.2-1,0.5-1.3c0.3-0.3,0.8-0.5,1.3-0.6L68.7,58.8
			z M66.6,61.5c0.2,0.2,0.5,0.2,0.7,0.2c0.3,0,0.7-0.1,1-0.2c0.6-0.3,0.8-0.7,0.8-1.3v-0.8c-0.1,0.1-0.3,0.1-0.5,0.2
			c-0.2,0.1-0.4,0.1-0.6,0.1l-0.6,0.1c-0.4,0-0.6,0.1-0.8,0.2c-0.3,0.2-0.5,0.4-0.5,0.8C66.3,61.1,66.4,61.3,66.6,61.5z"/>
		<path d="M75,56.6c0.2,0.1,0.4,0.3,0.6,0.6v-3h1v8.1h-0.9v-0.8c-0.2,0.4-0.5,0.6-0.8,0.8c-0.3,0.2-0.7,0.2-1.1,0.2
			c-0.7,0-1.2-0.3-1.7-0.8c-0.5-0.6-0.7-1.3-0.7-2.2c0-0.9,0.2-1.6,0.7-2.2c0.4-0.6,1.1-0.9,1.9-0.9C74.3,56.4,74.6,56.4,75,56.6z
			 M72.7,61.1c0.3,0.4,0.7,0.6,1.3,0.6c0.5,0,0.8-0.2,1.1-0.6c0.3-0.4,0.4-1,0.4-1.7c0-0.7-0.2-1.3-0.5-1.7
			c-0.3-0.4-0.7-0.5-1.1-0.5c-0.5,0-0.9,0.2-1.2,0.6c-0.3,0.4-0.5,0.9-0.5,1.7C72.3,60.1,72.5,60.6,72.7,61.1z"/>
		<path d="M6.8,68c0.2,0.1,0.4,0.3,0.6,0.6v-3h1v8.1H7.4V73c-0.2,0.4-0.5,0.6-0.8,0.8C6.3,73.9,5.9,74,5.5,74
			c-0.7,0-1.2-0.3-1.7-0.8c-0.5-0.6-0.7-1.3-0.7-2.2c0-0.9,0.2-1.6,0.7-2.2c0.4-0.6,1.1-0.9,1.9-0.9C6.1,67.8,6.5,67.9,6.8,68z
			 M4.5,72.5c0.3,0.4,0.7,0.6,1.3,0.6c0.5,0,0.8-0.2,1.1-0.6c0.3-0.4,0.4-1,0.4-1.7c0-0.7-0.2-1.3-0.5-1.7c-0.3-0.4-0.7-0.5-1.1-0.5
			c-0.5,0-0.9,0.2-1.2,0.6c-0.3,0.4-0.5,0.9-0.5,1.7C4.1,71.5,4.3,72.1,4.5,72.5z"/>
		<path d="M13.4,68c0.4,0.2,0.7,0.5,0.9,0.8c0.2,0.3,0.3,0.6,0.4,1c0.1,0.3,0.1,0.7,0.1,1.3h-4.3c0,0.6,0.2,1.1,0.4,1.4
			s0.7,0.5,1.2,0.5c0.5,0,0.9-0.2,1.2-0.5c0.2-0.2,0.3-0.4,0.4-0.7h1c0,0.2-0.1,0.5-0.3,0.7c-0.1,0.3-0.3,0.5-0.5,0.7
			c-0.3,0.3-0.7,0.5-1.1,0.6C12.6,74,12.3,74,12,74c-0.7,0-1.4-0.3-1.9-0.8c-0.5-0.5-0.8-1.3-0.8-2.2c0-0.9,0.3-1.7,0.8-2.3
			c0.5-0.6,1.2-0.9,2-0.9C12.6,67.7,13,67.8,13.4,68z M13.7,70.3c0-0.4-0.1-0.8-0.3-1c-0.3-0.5-0.7-0.7-1.4-0.7
			c-0.5,0-0.8,0.2-1.1,0.5c-0.3,0.3-0.5,0.7-0.5,1.3H13.7z"/>
		<path d="M16,65.7h1v8.1h-1V65.7z"/>
		<path d="M21.7,65.7h3.6c0.7,0,1.3,0.2,1.7,0.6c0.4,0.4,0.7,1,0.7,1.7c0,0.6-0.2,1.2-0.6,1.7c-0.4,0.5-1,0.7-1.8,0.7h-2.5v3.4h-1.1
			V65.7z M26,66.8c-0.2-0.1-0.6-0.2-1-0.2h-2.2v2.8H25c0.5,0,0.9-0.1,1.2-0.3c0.3-0.2,0.5-0.6,0.5-1.1C26.6,67.4,26.4,67,26,66.8z"
			/>
		<path d="M32.1,70.2c0.2,0,0.4-0.1,0.5-0.3c0-0.1,0.1-0.2,0.1-0.4c0-0.3-0.1-0.6-0.4-0.7c-0.2-0.2-0.6-0.2-1-0.2
			c-0.5,0-0.9,0.1-1.1,0.4c-0.1,0.2-0.2,0.4-0.2,0.7H29c0-0.7,0.3-1.2,0.7-1.5c0.5-0.3,1-0.4,1.6-0.4c0.7,0,1.3,0.1,1.7,0.4
			c0.4,0.3,0.6,0.7,0.6,1.2v3.4c0,0.1,0,0.2,0.1,0.2c0,0.1,0.1,0.1,0.3,0.1c0,0,0.1,0,0.1,0c0.1,0,0.1,0,0.2,0v0.7
			c-0.2,0-0.3,0.1-0.4,0.1c-0.1,0-0.2,0-0.3,0c-0.3,0-0.6-0.1-0.7-0.4c-0.1-0.1-0.1-0.3-0.2-0.5c-0.2,0.3-0.5,0.5-0.9,0.7
			C31.4,73.9,31,74,30.5,74c-0.5,0-1-0.2-1.3-0.5c-0.3-0.3-0.5-0.7-0.5-1.2c0-0.5,0.2-1,0.5-1.3c0.3-0.3,0.8-0.5,1.3-0.6L32.1,70.2z
			 M30,72.9c0.2,0.2,0.5,0.2,0.7,0.2c0.3,0,0.7-0.1,1-0.2c0.6-0.3,0.8-0.7,0.8-1.3v-0.8c-0.1,0.1-0.3,0.1-0.5,0.2
			c-0.2,0.1-0.4,0.1-0.6,0.1L31,71.2c-0.4,0-0.6,0.1-0.8,0.2c-0.3,0.2-0.5,0.4-0.5,0.8C29.7,72.5,29.8,72.7,30,72.9z"/>
		<path d="M37.4,65.5L36,67.1h-0.8l1-1.6H37.4z M35.5,67.9h1v5.9h-1V67.9z"/>
		<path d="M38.8,71.9c0,0.3,0.1,0.6,0.3,0.8c0.3,0.3,0.7,0.5,1.3,0.5c0.4,0,0.7-0.1,1-0.2c0.3-0.2,0.4-0.4,0.4-0.7
			c0-0.3-0.1-0.4-0.3-0.6c-0.1-0.1-0.4-0.2-0.9-0.3l-0.8-0.2c-0.5-0.1-0.9-0.3-1.1-0.4c-0.4-0.3-0.7-0.6-0.7-1.1
			c0-0.6,0.2-1,0.6-1.4c0.4-0.3,1-0.5,1.6-0.5c0.9,0,1.6,0.3,2,0.8c0.2,0.3,0.4,0.7,0.4,1.1h-0.9c0-0.2-0.1-0.4-0.2-0.6
			c-0.2-0.3-0.6-0.4-1.2-0.4c-0.4,0-0.7,0.1-0.9,0.2c-0.2,0.1-0.3,0.3-0.3,0.6c0,0.3,0.1,0.5,0.4,0.6c0.1,0.1,0.4,0.2,0.7,0.2
			l0.7,0.2c0.7,0.2,1.2,0.3,1.5,0.5c0.4,0.3,0.6,0.7,0.6,1.2c0,0.5-0.2,1-0.6,1.4c-0.4,0.4-1,0.6-1.8,0.6c-0.9,0-1.5-0.2-1.9-0.6
			s-0.6-0.9-0.6-1.5H38.8z"/>
		<path d="M47.6,65.7l2.3,6.9l2.3-6.9h1.2l-3,8.1h-1.2l-3-8.1H47.6z"/>
		<path d="M57.5,70.2c0.2,0,0.4-0.1,0.5-0.3c0-0.1,0.1-0.2,0.1-0.4c0-0.3-0.1-0.6-0.4-0.7c-0.2-0.2-0.6-0.2-1-0.2
			c-0.5,0-0.9,0.1-1.1,0.4c-0.1,0.2-0.2,0.4-0.2,0.7h-0.9c0-0.7,0.3-1.2,0.7-1.5c0.5-0.3,1-0.4,1.6-0.4c0.7,0,1.3,0.1,1.7,0.4
			c0.4,0.3,0.6,0.7,0.6,1.2v3.4c0,0.1,0,0.2,0.1,0.2c0,0.1,0.1,0.1,0.3,0.1c0,0,0.1,0,0.1,0c0.1,0,0.1,0,0.2,0v0.7
			c-0.2,0-0.3,0.1-0.4,0.1c-0.1,0-0.2,0-0.3,0c-0.3,0-0.6-0.1-0.7-0.4c-0.1-0.1-0.1-0.3-0.2-0.5c-0.2,0.3-0.5,0.5-0.9,0.7
			c-0.4,0.2-0.8,0.3-1.3,0.3c-0.5,0-1-0.2-1.3-0.5c-0.3-0.3-0.5-0.7-0.5-1.2c0-0.5,0.2-1,0.5-1.3c0.3-0.3,0.8-0.5,1.3-0.6L57.5,70.2
			z M55.4,72.9c0.2,0.2,0.5,0.2,0.7,0.2c0.3,0,0.7-0.1,1-0.2c0.6-0.3,0.8-0.7,0.8-1.3v-0.8c-0.1,0.1-0.3,0.1-0.5,0.2
			c-0.2,0.1-0.4,0.1-0.6,0.1l-0.6,0.1c-0.4,0-0.6,0.1-0.8,0.2c-0.3,0.2-0.5,0.4-0.5,0.8C55.1,72.5,55.2,72.7,55.4,72.9z"/>
		<path d="M61.1,71.9c0,0.3,0.1,0.6,0.3,0.8c0.3,0.3,0.7,0.5,1.3,0.5c0.4,0,0.7-0.1,1-0.2c0.3-0.2,0.4-0.4,0.4-0.7
			c0-0.3-0.1-0.4-0.3-0.6c-0.1-0.1-0.4-0.2-0.9-0.3l-0.8-0.2c-0.5-0.1-0.9-0.3-1.1-0.4c-0.4-0.3-0.7-0.6-0.7-1.1
			c0-0.6,0.2-1,0.6-1.4c0.4-0.3,1-0.5,1.6-0.5c0.9,0,1.6,0.3,2,0.8c0.2,0.3,0.4,0.7,0.4,1.1H64c0-0.2-0.1-0.4-0.2-0.6
			c-0.2-0.3-0.6-0.4-1.2-0.4c-0.4,0-0.7,0.1-0.9,0.2c-0.2,0.1-0.3,0.3-0.3,0.6c0,0.3,0.1,0.5,0.4,0.6c0.1,0.1,0.4,0.2,0.7,0.2
			l0.7,0.2c0.7,0.2,1.2,0.3,1.5,0.5c0.4,0.3,0.6,0.7,0.6,1.2c0,0.5-0.2,1-0.6,1.4c-0.4,0.4-1,0.6-1.8,0.6c-0.9,0-1.5-0.2-1.9-0.6
			s-0.6-0.9-0.6-1.5H61.1z"/>
		<path d="M70,68.2c0.4,0.3,0.7,0.9,0.8,1.7h-1c-0.1-0.4-0.2-0.7-0.4-0.9c-0.2-0.2-0.5-0.4-1-0.4c-0.6,0-1.1,0.3-1.4,0.9
			c-0.2,0.4-0.3,0.9-0.3,1.5c0,0.6,0.1,1.1,0.4,1.5c0.3,0.4,0.6,0.6,1.2,0.6c0.4,0,0.7-0.1,1-0.4c0.2-0.3,0.4-0.6,0.5-1h1
			c-0.1,0.8-0.4,1.4-0.8,1.7c-0.4,0.4-1,0.5-1.7,0.5c-0.8,0-1.4-0.3-1.8-0.8c-0.5-0.6-0.7-1.3-0.7-2.1c0-1,0.3-1.8,0.8-2.4
			c0.5-0.6,1.1-0.9,1.9-0.9C69.1,67.7,69.6,67.9,70,68.2z"/>
		<path d="M76,68.5c0.5,0.5,0.8,1.3,0.8,2.2c0,1-0.2,1.7-0.7,2.4c-0.5,0.6-1.2,0.9-2.1,0.9c-0.8,0-1.4-0.3-1.9-0.8
			c-0.5-0.5-0.7-1.3-0.7-2.2c0-1,0.3-1.8,0.8-2.4c0.5-0.6,1.2-0.9,2-0.9C74.8,67.7,75.5,67.9,76,68.5z M75.4,72.4
			c0.2-0.5,0.4-1.1,0.4-1.7c0-0.6-0.1-1-0.3-1.3c-0.3-0.5-0.8-0.8-1.4-0.8c-0.6,0-1,0.2-1.3,0.7s-0.4,1-0.4,1.7
			c0,0.6,0.1,1.2,0.4,1.6c0.3,0.4,0.7,0.6,1.3,0.6C74.7,73.1,75.1,72.9,75.4,72.4z"/>
	</g>
	<g>
		<path d="M97.8,54.3h5.9v1h-4.8v2.5h4.4v0.9h-4.4v2.7h4.9v1h-6V54.3z"/>
		<path d="M106,56.5v3.9c0,0.3,0,0.5,0.1,0.7c0.2,0.4,0.5,0.5,1,0.5c0.7,0,1.1-0.3,1.4-0.9c0.1-0.3,0.2-0.8,0.2-1.4v-2.9h1v5.9h-0.9
			l0-0.9c-0.1,0.2-0.3,0.4-0.5,0.6c-0.4,0.3-0.8,0.5-1.4,0.5c-0.8,0-1.4-0.3-1.7-0.8c-0.2-0.3-0.2-0.7-0.2-1.2v-4H106z"/>
		<path d="M111.8,60.5c0,0.3,0.1,0.6,0.3,0.8c0.3,0.3,0.7,0.5,1.3,0.5c0.4,0,0.7-0.1,1-0.2c0.3-0.2,0.4-0.4,0.4-0.7
			c0-0.3-0.1-0.4-0.3-0.6c-0.1-0.1-0.4-0.2-0.9-0.3l-0.8-0.2c-0.5-0.1-0.9-0.3-1.1-0.4c-0.4-0.3-0.7-0.6-0.7-1.1
			c0-0.6,0.2-1,0.6-1.4c0.4-0.3,1-0.5,1.6-0.5c0.9,0,1.6,0.3,2,0.8c0.2,0.3,0.4,0.7,0.4,1.1h-0.9c0-0.2-0.1-0.4-0.2-0.6
			c-0.2-0.3-0.6-0.4-1.2-0.4c-0.4,0-0.7,0.1-0.9,0.2s-0.3,0.3-0.3,0.6c0,0.3,0.1,0.5,0.4,0.6c0.1,0.1,0.4,0.2,0.7,0.2l0.7,0.2
			c0.7,0.2,1.2,0.3,1.5,0.5c0.4,0.3,0.6,0.7,0.6,1.2c0,0.5-0.2,1-0.6,1.4c-0.4,0.4-1,0.6-1.8,0.6c-0.9,0-1.5-0.2-1.9-0.6
			c-0.4-0.4-0.6-0.9-0.6-1.5H111.8z"/>
		<path d="M116.8,54.3h1V59l2.5-2.5h1.3l-2.3,2.2l2.4,3.7h-1.3l-1.9-3l-0.8,0.8v2.2h-1V54.3z"/>
		<path d="M125.6,58.8c0.2,0,0.4-0.1,0.5-0.3c0-0.1,0.1-0.2,0.1-0.4c0-0.3-0.1-0.6-0.4-0.7c-0.2-0.2-0.6-0.2-1-0.2
			c-0.5,0-0.9,0.1-1.1,0.4c-0.1,0.2-0.2,0.4-0.2,0.7h-0.9c0-0.7,0.3-1.2,0.7-1.5c0.5-0.3,1-0.4,1.6-0.4c0.7,0,1.3,0.1,1.7,0.4
			c0.4,0.3,0.6,0.7,0.6,1.2v3.4c0,0.1,0,0.2,0.1,0.2c0,0.1,0.1,0.1,0.3,0.1c0,0,0.1,0,0.1,0c0.1,0,0.1,0,0.2,0v0.7
			c-0.2,0-0.3,0.1-0.4,0.1c-0.1,0-0.2,0-0.3,0c-0.3,0-0.6-0.1-0.7-0.4c-0.1-0.1-0.1-0.3-0.2-0.5c-0.2,0.3-0.5,0.5-0.9,0.7
			c-0.4,0.2-0.8,0.3-1.3,0.3c-0.5,0-1-0.2-1.3-0.5c-0.3-0.3-0.5-0.7-0.5-1.2c0-0.5,0.2-1,0.5-1.3c0.3-0.3,0.8-0.5,1.3-0.6
			L125.6,58.8z M123.5,61.5c0.2,0.2,0.5,0.2,0.7,0.2c0.3,0,0.7-0.1,1-0.2c0.6-0.3,0.8-0.7,0.8-1.3v-0.8c-0.1,0.1-0.3,0.1-0.5,0.2
			c-0.2,0.1-0.4,0.1-0.6,0.1l-0.6,0.1c-0.4,0-0.6,0.1-0.8,0.2c-0.3,0.2-0.5,0.4-0.5,0.8C123.2,61.1,123.3,61.3,123.5,61.5z"/>
		<path d="M128.6,54.3h1v8.1h-1V54.3z"/>
		<path d="M134.3,54.3h1.1v3.3h4.2v-3.3h1.1v8.1h-1.1v-3.8h-4.2v3.8h-1.1V54.3z"/>
		<path d="M145.9,56.6c0.4,0.2,0.7,0.5,0.9,0.8c0.2,0.3,0.3,0.6,0.4,1c0.1,0.3,0.1,0.7,0.1,1.3h-4.3c0,0.6,0.2,1.1,0.4,1.4
			c0.3,0.4,0.7,0.5,1.2,0.5c0.5,0,0.9-0.2,1.2-0.5c0.2-0.2,0.3-0.4,0.4-0.7h1c0,0.2-0.1,0.5-0.3,0.7c-0.1,0.3-0.3,0.5-0.5,0.7
			c-0.3,0.3-0.7,0.5-1.1,0.6c-0.2,0.1-0.5,0.1-0.8,0.1c-0.7,0-1.4-0.3-1.9-0.8c-0.5-0.5-0.8-1.3-0.8-2.2c0-0.9,0.3-1.7,0.8-2.3
			c0.5-0.6,1.2-0.9,2-0.9C145.1,56.3,145.5,56.4,145.9,56.6z M146.2,58.9c0-0.4-0.1-0.8-0.3-1c-0.3-0.5-0.7-0.7-1.4-0.7
			c-0.5,0-0.8,0.2-1.1,0.5c-0.3,0.3-0.5,0.7-0.5,1.3H146.2z"/>
		<path d="M148.5,56.5h0.9v1c0.1-0.2,0.3-0.4,0.6-0.7c0.3-0.3,0.6-0.4,1-0.4c0,0,0,0,0.1,0s0.1,0,0.2,0v1c-0.1,0-0.1,0-0.2,0
			c0,0-0.1,0-0.2,0c-0.5,0-0.9,0.2-1.2,0.5c-0.3,0.3-0.4,0.7-0.4,1.1v3.4h-1V56.5z"/>
		<path d="M152.1,56.5h0.9v1c0.1-0.2,0.3-0.4,0.6-0.7c0.3-0.3,0.6-0.4,1-0.4c0,0,0,0,0.1,0s0.1,0,0.2,0v1c-0.1,0-0.1,0-0.2,0
			c0,0-0.1,0-0.2,0c-0.5,0-0.9,0.2-1.2,0.5c-0.3,0.3-0.4,0.7-0.4,1.1v3.4h-1V56.5z"/>
		<path d="M155.8,54.3h1v1.1h-1V54.3z M155.8,56.5h1v5.9h-1V56.5z"/>
		<path d="M158.2,54.3h1V59l2.5-2.5h1.3l-2.3,2.2l2.4,3.7h-1.3l-1.9-3l-0.8,0.8v2.2h-1V54.3z"/>
		<path d="M168.1,57c0.5,0.5,0.8,1.3,0.8,2.2c0,1-0.2,1.7-0.7,2.4c-0.5,0.6-1.2,0.9-2.1,0.9c-0.8,0-1.4-0.3-1.9-0.8
			c-0.5-0.5-0.7-1.3-0.7-2.2c0-1,0.3-1.8,0.8-2.4c0.5-0.6,1.2-0.9,2-0.9C167,56.3,167.6,56.5,168.1,57z M167.5,61
			c0.2-0.5,0.4-1.1,0.4-1.7c0-0.6-0.1-1-0.3-1.3c-0.3-0.5-0.8-0.8-1.4-0.8c-0.6,0-1,0.2-1.3,0.7c-0.3,0.5-0.4,1-0.4,1.7
			c0,0.6,0.1,1.2,0.4,1.6c0.3,0.4,0.7,0.6,1.3,0.6C166.8,61.7,167.3,61.5,167.5,61z"/>
		<path d="M98.9,65.7v5c0,0.6,0.1,1.1,0.3,1.5c0.3,0.6,0.9,0.9,1.7,0.9c0.9,0,1.6-0.3,1.9-1c0.2-0.3,0.3-0.8,0.3-1.4v-5h1.1v4.6
			c0,1-0.1,1.8-0.4,2.3c-0.5,1-1.4,1.5-2.8,1.5c-1.4,0-2.3-0.5-2.8-1.5c-0.3-0.5-0.4-1.3-0.4-2.3v-4.6H98.9z"/>
		<path d="M105.6,67.9h0.9v0.8c0.3-0.3,0.6-0.6,0.9-0.7c0.3-0.2,0.7-0.2,1-0.2c0.8,0,1.4,0.3,1.7,0.9c0.2,0.3,0.2,0.8,0.2,1.4v3.8
			h-1v-3.7c0-0.4-0.1-0.7-0.2-0.9c-0.2-0.4-0.5-0.6-1-0.6c-0.2,0-0.4,0-0.6,0.1c-0.3,0.1-0.5,0.2-0.7,0.5c-0.2,0.2-0.3,0.4-0.3,0.6
			s-0.1,0.5-0.1,0.9v3.1h-1V67.9z"/>
		<path d="M111.9,65.7h1v1.1h-1V65.7z M111.9,67.9h1v5.9h-1V67.9z"/>
		<path d="M114.2,65.6h1v2.9c0.2-0.3,0.5-0.5,0.8-0.6c0.3-0.1,0.6-0.2,1-0.2c0.7,0,1.3,0.3,1.8,0.8c0.5,0.5,0.7,1.3,0.7,2.2
			c0,0.9-0.2,1.7-0.7,2.3s-1.1,0.9-1.9,0.9c-0.5,0-0.8-0.1-1.1-0.3c-0.2-0.1-0.4-0.3-0.6-0.6v0.8h-0.9V65.6z M118,72.4
			c0.3-0.4,0.4-1,0.4-1.7c0-0.6-0.1-1.1-0.4-1.5c-0.3-0.4-0.7-0.6-1.2-0.6c-0.5,0-0.9,0.2-1.2,0.5c-0.3,0.3-0.5,0.9-0.5,1.7
			c0,0.6,0.1,1,0.2,1.4c0.3,0.7,0.8,1,1.5,1C117.3,73.1,117.7,72.9,118,72.4z"/>
		<path d="M124.2,68c0.4,0.2,0.7,0.5,0.9,0.8c0.2,0.3,0.3,0.6,0.4,1c0.1,0.3,0.1,0.7,0.1,1.3h-4.3c0,0.6,0.2,1.1,0.4,1.4
			c0.3,0.4,0.7,0.5,1.2,0.5c0.5,0,0.9-0.2,1.2-0.5c0.2-0.2,0.3-0.4,0.4-0.7h1c0,0.2-0.1,0.5-0.3,0.7c-0.1,0.3-0.3,0.5-0.5,0.7
			c-0.3,0.3-0.7,0.5-1.1,0.6c-0.2,0.1-0.5,0.1-0.8,0.1c-0.7,0-1.4-0.3-1.9-0.8c-0.5-0.5-0.8-1.3-0.8-2.2c0-0.9,0.3-1.7,0.8-2.3
			c0.5-0.6,1.2-0.9,2-0.9C123.4,67.7,123.8,67.8,124.2,68z M124.5,70.3c0-0.4-0.1-0.8-0.3-1c-0.3-0.5-0.7-0.7-1.4-0.7
			c-0.5,0-0.8,0.2-1.1,0.5s-0.5,0.7-0.5,1.3H124.5z"/>
		<path d="M126.8,67.9h0.9v1c0.1-0.2,0.3-0.4,0.6-0.7c0.3-0.3,0.6-0.4,1-0.4c0,0,0,0,0.1,0s0.1,0,0.2,0v1c-0.1,0-0.1,0-0.2,0
			c0,0-0.1,0-0.2,0c-0.5,0-0.9,0.2-1.2,0.5c-0.3,0.3-0.4,0.7-0.4,1.1v3.4h-1V67.9z"/>
		<path d="M130.6,66.2h1v1.6h0.9v0.8h-0.9v3.9c0,0.2,0.1,0.3,0.2,0.4c0.1,0,0.2,0.1,0.4,0.1c0,0,0.1,0,0.2,0s0.1,0,0.2,0v0.8
			c-0.1,0-0.2,0.1-0.4,0.1c-0.1,0-0.3,0-0.4,0c-0.5,0-0.8-0.1-0.9-0.4c-0.2-0.2-0.2-0.5-0.2-0.9v-3.9h-0.8v-0.8h0.8V66.2z"/>
		<path d="M134.1,71.9c0,0.3,0.1,0.6,0.3,0.8c0.3,0.3,0.7,0.5,1.3,0.5c0.4,0,0.7-0.1,1-0.2c0.3-0.2,0.4-0.4,0.4-0.7
			c0-0.3-0.1-0.4-0.3-0.6c-0.1-0.1-0.4-0.2-0.9-0.3l-0.8-0.2c-0.5-0.1-0.9-0.3-1.1-0.4c-0.4-0.3-0.7-0.6-0.7-1.1
			c0-0.6,0.2-1,0.6-1.4c0.4-0.3,1-0.5,1.6-0.5c0.9,0,1.6,0.3,2,0.8c0.2,0.3,0.4,0.7,0.4,1.1h-0.9c0-0.2-0.1-0.4-0.2-0.6
			c-0.2-0.3-0.6-0.4-1.2-0.4c-0.4,0-0.7,0.1-0.9,0.2c-0.2,0.1-0.3,0.3-0.3,0.6c0,0.3,0.1,0.5,0.4,0.6c0.1,0.1,0.4,0.2,0.7,0.2
			l0.7,0.2c0.7,0.2,1.2,0.3,1.5,0.5c0.4,0.3,0.6,0.7,0.6,1.2c0,0.5-0.2,1-0.6,1.4c-0.4,0.4-1,0.6-1.8,0.6c-0.9,0-1.5-0.2-1.9-0.6
			s-0.6-0.9-0.6-1.5H134.1z"/>
		<path d="M139.1,65.7h1v1.1h-1V65.7z M139.1,67.9h1v5.9h-1V67.9z"/>
		<path d="M141.7,66.2h1v1.6h0.9v0.8h-0.9v3.9c0,0.2,0.1,0.3,0.2,0.4c0.1,0,0.2,0.1,0.4,0.1c0,0,0.1,0,0.2,0s0.1,0,0.2,0v0.8
			c-0.1,0-0.2,0.1-0.4,0.1c-0.1,0-0.3,0-0.4,0c-0.5,0-0.8-0.1-0.9-0.4c-0.2-0.2-0.2-0.5-0.2-0.9v-3.9h-0.8v-0.8h0.8V66.2z"/>
		<path d="M147.8,70.2c0.2,0,0.4-0.1,0.5-0.3c0-0.1,0.1-0.2,0.1-0.4c0-0.3-0.1-0.6-0.4-0.7c-0.2-0.2-0.6-0.2-1-0.2
			c-0.5,0-0.9,0.1-1.1,0.4c-0.1,0.2-0.2,0.4-0.2,0.7h-0.9c0-0.7,0.3-1.2,0.7-1.5c0.5-0.3,1-0.4,1.6-0.4c0.7,0,1.3,0.1,1.7,0.4
			c0.4,0.3,0.6,0.7,0.6,1.2v3.4c0,0.1,0,0.2,0.1,0.2c0,0.1,0.1,0.1,0.3,0.1c0,0,0.1,0,0.1,0c0.1,0,0.1,0,0.2,0v0.7
			c-0.2,0-0.3,0.1-0.4,0.1c-0.1,0-0.2,0-0.3,0c-0.3,0-0.6-0.1-0.7-0.4c-0.1-0.1-0.1-0.3-0.2-0.5c-0.2,0.3-0.5,0.5-0.9,0.7
			c-0.4,0.2-0.8,0.3-1.3,0.3c-0.5,0-1-0.2-1.3-0.5c-0.3-0.3-0.5-0.7-0.5-1.2c0-0.5,0.2-1,0.5-1.3c0.3-0.3,0.8-0.5,1.3-0.6
			L147.8,70.2z M145.7,72.9c0.2,0.2,0.5,0.2,0.7,0.2c0.3,0,0.7-0.1,1-0.2c0.6-0.3,0.8-0.7,0.8-1.3v-0.8c-0.1,0.1-0.3,0.1-0.5,0.2
			c-0.2,0.1-0.4,0.1-0.6,0.1l-0.6,0.1c-0.4,0-0.6,0.1-0.8,0.2c-0.3,0.2-0.5,0.4-0.5,0.8C145.3,72.5,145.5,72.7,145.7,72.9z"/>
		<path d="M151,66.2h1v1.6h0.9v0.8H152v3.9c0,0.2,0.1,0.3,0.2,0.4c0.1,0,0.2,0.1,0.4,0.1c0,0,0.1,0,0.2,0s0.1,0,0.2,0v0.8
			c-0.1,0-0.2,0.1-0.4,0.1c-0.1,0-0.3,0-0.4,0c-0.5,0-0.8-0.1-0.9-0.4c-0.2-0.2-0.2-0.5-0.2-0.9v-3.9h-0.8v-0.8h0.8V66.2z"/>
		<path d="M157.5,68c0.4,0.2,0.7,0.5,0.9,0.8c0.2,0.3,0.3,0.6,0.4,1c0.1,0.3,0.1,0.7,0.1,1.3h-4.3c0,0.6,0.2,1.1,0.4,1.4
			s0.7,0.5,1.2,0.5c0.5,0,0.9-0.2,1.2-0.5c0.2-0.2,0.3-0.4,0.4-0.7h1c0,0.2-0.1,0.5-0.3,0.7c-0.1,0.3-0.3,0.5-0.5,0.7
			c-0.3,0.3-0.7,0.5-1.1,0.6c-0.2,0.1-0.5,0.1-0.8,0.1c-0.7,0-1.4-0.3-1.9-0.8c-0.5-0.5-0.8-1.3-0.8-2.2c0-0.9,0.3-1.7,0.8-2.3
			c0.5-0.6,1.2-0.9,2-0.9C156.7,67.7,157.1,67.8,157.5,68z M157.9,70.3c0-0.4-0.1-0.8-0.3-1c-0.3-0.5-0.7-0.7-1.4-0.7
			c-0.5,0-0.8,0.2-1.1,0.5c-0.3,0.3-0.5,0.7-0.5,1.3H157.9z"/>
		<path d="M163.3,70.2c0.2,0,0.4-0.1,0.5-0.3c0-0.1,0.1-0.2,0.1-0.4c0-0.3-0.1-0.6-0.4-0.7c-0.2-0.2-0.6-0.2-1-0.2
			c-0.5,0-0.9,0.1-1.1,0.4c-0.1,0.2-0.2,0.4-0.2,0.7h-0.9c0-0.7,0.3-1.2,0.7-1.5c0.5-0.3,1-0.4,1.6-0.4c0.7,0,1.3,0.1,1.7,0.4
			c0.4,0.3,0.6,0.7,0.6,1.2v3.4c0,0.1,0,0.2,0.1,0.2c0,0.1,0.1,0.1,0.3,0.1c0,0,0.1,0,0.1,0c0.1,0,0.1,0,0.2,0v0.7
			c-0.2,0-0.3,0.1-0.4,0.1c-0.1,0-0.2,0-0.3,0c-0.3,0-0.6-0.1-0.7-0.4c-0.1-0.1-0.1-0.3-0.2-0.5c-0.2,0.3-0.5,0.5-0.9,0.7
			c-0.4,0.2-0.8,0.3-1.3,0.3c-0.5,0-1-0.2-1.3-0.5c-0.3-0.3-0.5-0.7-0.5-1.2c0-0.5,0.2-1,0.5-1.3c0.3-0.3,0.8-0.5,1.3-0.6
			L163.3,70.2z M161.2,72.9c0.2,0.2,0.5,0.2,0.7,0.2c0.3,0,0.7-0.1,1-0.2c0.6-0.3,0.8-0.7,0.8-1.3v-0.8c-0.1,0.1-0.3,0.1-0.5,0.2
			c-0.2,0.1-0.4,0.1-0.6,0.1l-0.6,0.1c-0.4,0-0.6,0.1-0.8,0.2c-0.3,0.2-0.5,0.4-0.5,0.8C160.8,72.5,161,72.7,161.2,72.9z"/>
	</g>
	<g>
		<path d="M69.3,3.1c0.2,0.1,0.3,0.2,0.4,0.3c0.1,0.1,0.1,0.3,0.2,0.5c0,0.1,0,0.3,0,0.6H68c0,0.3,0.1,0.5,0.2,0.6
			c0.1,0.2,0.3,0.2,0.5,0.2c0.2,0,0.4-0.1,0.6-0.2c0.1-0.1,0.1-0.2,0.2-0.3h0.4c0,0.1,0,0.2-0.1,0.3c-0.1,0.1-0.1,0.2-0.2,0.3
			c-0.1,0.1-0.3,0.2-0.5,0.3c-0.1,0-0.2,0-0.4,0c-0.3,0-0.6-0.1-0.8-0.4c-0.2-0.2-0.3-0.6-0.3-1c0-0.4,0.1-0.8,0.3-1
			c0.2-0.3,0.5-0.4,0.9-0.4C68.9,2.9,69.1,3,69.3,3.1z M69.5,4.1c0-0.2-0.1-0.3-0.1-0.5c-0.1-0.2-0.3-0.3-0.6-0.3
			c-0.2,0-0.4,0.1-0.5,0.2C68.1,3.7,68,3.9,68,4.1H69.5z"/>
		<path d="M70.4,3h0.4v0.4c0.1-0.1,0.2-0.2,0.3-0.3c0.1-0.1,0.3-0.2,0.5-0.2c0.2,0,0.4,0.1,0.5,0.2c0.1,0.1,0.1,0.1,0.2,0.3
			c0.1-0.1,0.2-0.2,0.3-0.3C72.9,3,73,2.9,73.2,2.9c0.4,0,0.6,0.1,0.7,0.4C74,3.5,74,3.6,74,3.9v1.8h-0.5V3.8c0-0.2,0-0.3-0.1-0.4
			c-0.1-0.1-0.2-0.1-0.3-0.1c-0.2,0-0.3,0.1-0.5,0.2c-0.1,0.1-0.2,0.3-0.2,0.6v1.5H72V3.9c0-0.2,0-0.3-0.1-0.4
			c-0.1-0.1-0.2-0.2-0.4-0.2c-0.2,0-0.3,0.1-0.5,0.2c-0.1,0.1-0.2,0.4-0.2,0.7v1.4h-0.4V3z"/>
		<path d="M76,4c0.1,0,0.2-0.1,0.2-0.1c0,0,0-0.1,0-0.2c0-0.2-0.1-0.3-0.2-0.3s-0.3-0.1-0.5-0.1c-0.2,0-0.4,0.1-0.5,0.2
			c-0.1,0.1-0.1,0.2-0.1,0.3h-0.4c0-0.3,0.1-0.6,0.3-0.7c0.2-0.1,0.4-0.2,0.7-0.2c0.3,0,0.6,0.1,0.8,0.2c0.2,0.1,0.3,0.3,0.3,0.6
			v1.5c0,0,0,0.1,0,0.1c0,0,0.1,0,0.1,0c0,0,0,0,0.1,0c0,0,0.1,0,0.1,0v0.3c-0.1,0-0.1,0-0.2,0c0,0-0.1,0-0.1,0
			c-0.2,0-0.3-0.1-0.3-0.2c0-0.1-0.1-0.1-0.1-0.2c-0.1,0.1-0.2,0.2-0.4,0.3c-0.2,0.1-0.4,0.1-0.6,0.1c-0.2,0-0.4-0.1-0.6-0.2
			c-0.2-0.1-0.2-0.3-0.2-0.6c0-0.2,0.1-0.4,0.2-0.6c0.2-0.1,0.4-0.2,0.6-0.2L76,4z M75.1,5.2c0.1,0.1,0.2,0.1,0.3,0.1
			c0.2,0,0.3,0,0.5-0.1c0.2-0.1,0.4-0.3,0.4-0.6V4.3c-0.1,0-0.1,0.1-0.2,0.1s-0.2,0-0.3,0l-0.3,0c-0.2,0-0.3,0.1-0.4,0.1
			C75,4.6,75,4.8,75,4.9C75,5.1,75,5.2,75.1,5.2z"/>
		<path d="M77.4,3h0.4v0.4C78,3.2,78.1,3.1,78.2,3c0.1-0.1,0.3-0.1,0.5-0.1c0.4,0,0.6,0.1,0.8,0.4c0.1,0.1,0.1,0.3,0.1,0.6v1.7h-0.5
			V4c0-0.2,0-0.3-0.1-0.4c-0.1-0.2-0.2-0.2-0.4-0.2c-0.1,0-0.2,0-0.3,0c-0.1,0-0.2,0.1-0.3,0.2c-0.1,0.1-0.1,0.2-0.1,0.3
			c0,0.1,0,0.2,0,0.4v1.4h-0.4V3z"/>
		<path d="M81.7,2.3h0.4V3h0.4v0.4h-0.4v1.7c0,0.1,0,0.2,0.1,0.2c0,0,0.1,0,0.2,0c0,0,0,0,0.1,0c0,0,0.1,0,0.1,0v0.4
			c-0.1,0-0.1,0-0.2,0c-0.1,0-0.1,0-0.2,0c-0.2,0-0.3-0.1-0.4-0.2c-0.1-0.1-0.1-0.2-0.1-0.4V3.4h-0.4V3h0.4V2.3z"/>
		<path d="M84.4,4c0.1,0,0.2-0.1,0.2-0.1c0,0,0-0.1,0-0.2c0-0.2-0.1-0.3-0.2-0.3c-0.1-0.1-0.3-0.1-0.5-0.1c-0.2,0-0.4,0.1-0.5,0.2
			c-0.1,0.1-0.1,0.2-0.1,0.3H83c0-0.3,0.1-0.6,0.3-0.7C83.5,3,83.7,2.9,84,2.9c0.3,0,0.6,0.1,0.8,0.2C84.9,3.2,85,3.4,85,3.7v1.5
			c0,0,0,0.1,0,0.1c0,0,0.1,0,0.1,0c0,0,0,0,0.1,0c0,0,0.1,0,0.1,0v0.3c-0.1,0-0.1,0-0.2,0c0,0-0.1,0-0.1,0c-0.2,0-0.3-0.1-0.3-0.2
			c0-0.1-0.1-0.1-0.1-0.2c-0.1,0.1-0.2,0.2-0.4,0.3c-0.2,0.1-0.4,0.1-0.6,0.1c-0.2,0-0.4-0.1-0.6-0.2c-0.2-0.1-0.2-0.3-0.2-0.6
			c0-0.2,0.1-0.4,0.2-0.6c0.2-0.1,0.4-0.2,0.6-0.2L84.4,4z M83.4,5.2c0.1,0.1,0.2,0.1,0.3,0.1c0.2,0,0.3,0,0.5-0.1
			c0.2-0.1,0.4-0.3,0.4-0.6V4.3c-0.1,0-0.1,0.1-0.2,0.1c-0.1,0-0.2,0-0.3,0l-0.3,0c-0.2,0-0.3,0.1-0.4,0.1c-0.1,0.1-0.2,0.2-0.2,0.4
			C83.3,5.1,83.3,5.2,83.4,5.2z"/>
		<path d="M86.9,5.3l1.6-1.9H87V3h2.1v0.4l-1.6,1.9h1.6v0.4h-2.2V5.3z"/>
		<path d="M91,4c0.1,0,0.2-0.1,0.2-0.1c0,0,0-0.1,0-0.2c0-0.2-0.1-0.3-0.2-0.3c-0.1-0.1-0.3-0.1-0.5-0.1c-0.2,0-0.4,0.1-0.5,0.2
			c-0.1,0.1-0.1,0.2-0.1,0.3h-0.4c0-0.3,0.1-0.6,0.3-0.7c0.2-0.1,0.4-0.2,0.7-0.2c0.3,0,0.6,0.1,0.8,0.2c0.2,0.1,0.3,0.3,0.3,0.6
			v1.5c0,0,0,0.1,0,0.1c0,0,0.1,0,0.1,0c0,0,0,0,0.1,0c0,0,0.1,0,0.1,0v0.3c-0.1,0-0.1,0-0.2,0c0,0-0.1,0-0.1,0
			c-0.2,0-0.3-0.1-0.3-0.2c0-0.1-0.1-0.1-0.1-0.2c-0.1,0.1-0.2,0.2-0.4,0.3c-0.2,0.1-0.4,0.1-0.6,0.1c-0.2,0-0.4-0.1-0.6-0.2
			c-0.2-0.1-0.2-0.3-0.2-0.6c0-0.2,0.1-0.4,0.2-0.6c0.2-0.1,0.4-0.2,0.6-0.2L91,4z M90.1,5.2c0.1,0.1,0.2,0.1,0.3,0.1
			c0.2,0,0.3,0,0.5-0.1c0.2-0.1,0.4-0.3,0.4-0.6V4.3c-0.1,0-0.1,0.1-0.2,0.1c-0.1,0-0.2,0-0.3,0l-0.3,0c-0.2,0-0.3,0.1-0.4,0.1
			c-0.1,0.1-0.2,0.2-0.2,0.4C89.9,5.1,90,5.2,90.1,5.2z"/>
		<path d="M92.4,2h0.4v1.3C92.9,3.2,93,3.1,93.1,3c0.1-0.1,0.3-0.1,0.4-0.1c0.3,0,0.6,0.1,0.8,0.3c0.2,0.2,0.3,0.6,0.3,1
			c0,0.4-0.1,0.8-0.3,1c-0.2,0.3-0.5,0.4-0.8,0.4c-0.2,0-0.4,0-0.5-0.1c-0.1-0.1-0.2-0.1-0.3-0.3v0.3h-0.4V2z M94.1,5
			c0.1-0.2,0.2-0.4,0.2-0.8c0-0.3-0.1-0.5-0.2-0.7c-0.1-0.2-0.3-0.3-0.5-0.3c-0.2,0-0.4,0.1-0.5,0.2c-0.2,0.1-0.2,0.4-0.2,0.7
			c0,0.2,0,0.5,0.1,0.6c0.1,0.3,0.3,0.4,0.7,0.4C93.8,5.3,93.9,5.2,94.1,5z"/>
		<path d="M96.6,4c0.1,0,0.2-0.1,0.2-0.1c0,0,0-0.1,0-0.2c0-0.2-0.1-0.3-0.2-0.3c-0.1-0.1-0.3-0.1-0.5-0.1c-0.2,0-0.4,0.1-0.5,0.2
			c-0.1,0.1-0.1,0.2-0.1,0.3h-0.4c0-0.3,0.1-0.6,0.3-0.7c0.2-0.1,0.4-0.2,0.7-0.2c0.3,0,0.6,0.1,0.8,0.2c0.2,0.1,0.3,0.3,0.3,0.6
			v1.5c0,0,0,0.1,0,0.1c0,0,0.1,0,0.1,0c0,0,0,0,0.1,0c0,0,0.1,0,0.1,0v0.3c-0.1,0-0.1,0-0.2,0c0,0-0.1,0-0.1,0
			c-0.2,0-0.3-0.1-0.3-0.2c0-0.1-0.1-0.1-0.1-0.2c-0.1,0.1-0.2,0.2-0.4,0.3c-0.2,0.1-0.4,0.1-0.6,0.1c-0.2,0-0.4-0.1-0.6-0.2
			C95.1,5.4,95,5.2,95,4.9c0-0.2,0.1-0.4,0.2-0.6c0.2-0.1,0.4-0.2,0.6-0.2L96.6,4z M95.7,5.2c0.1,0.1,0.2,0.1,0.3,0.1
			c0.2,0,0.3,0,0.5-0.1c0.2-0.1,0.4-0.3,0.4-0.6V4.3c-0.1,0-0.1,0.1-0.2,0.1c-0.1,0-0.2,0-0.3,0l-0.3,0c-0.2,0-0.3,0.1-0.4,0.1
			c-0.1,0.1-0.2,0.2-0.2,0.4C95.5,5.1,95.6,5.2,95.7,5.2z"/>
		<path d="M98,2h0.4v3.6H98V2z"/>
		<path d="M100.2,5.3l1.6-1.9h-1.5V3h2.1v0.4l-1.6,1.9h1.6v0.4h-2.2V5.3z"/>
		<path d="M104.3,4c0.1,0,0.2-0.1,0.2-0.1c0,0,0-0.1,0-0.2c0-0.2-0.1-0.3-0.2-0.3c-0.1-0.1-0.3-0.1-0.5-0.1c-0.2,0-0.4,0.1-0.5,0.2
			c-0.1,0.1-0.1,0.2-0.1,0.3h-0.4c0-0.3,0.1-0.6,0.3-0.7c0.2-0.1,0.4-0.2,0.7-0.2c0.3,0,0.6,0.1,0.8,0.2c0.2,0.1,0.3,0.3,0.3,0.6
			v1.5c0,0,0,0.1,0,0.1c0,0,0.1,0,0.1,0c0,0,0,0,0.1,0c0,0,0.1,0,0.1,0v0.3c-0.1,0-0.1,0-0.2,0c0,0-0.1,0-0.1,0
			c-0.2,0-0.3-0.1-0.3-0.2c0-0.1-0.1-0.1-0.1-0.2c-0.1,0.1-0.2,0.2-0.4,0.3c-0.2,0.1-0.4,0.1-0.6,0.1c-0.2,0-0.4-0.1-0.6-0.2
			c-0.2-0.1-0.2-0.3-0.2-0.6c0-0.2,0.1-0.4,0.2-0.6c0.2-0.1,0.4-0.2,0.6-0.2L104.3,4z M103.4,5.2c0.1,0.1,0.2,0.1,0.3,0.1
			c0.2,0,0.3,0,0.5-0.1c0.2-0.1,0.4-0.3,0.4-0.6V4.3c-0.1,0-0.1,0.1-0.2,0.1c-0.1,0-0.2,0-0.3,0l-0.3,0c-0.2,0-0.3,0.1-0.4,0.1
			c-0.1,0.1-0.2,0.2-0.2,0.4C103.3,5.1,103.3,5.2,103.4,5.2z"/>
		<path d="M105.5,5.3l1.6-1.9h-1.5V3h2.1v0.4l-1.6,1.9h1.6v0.4h-2.2V5.3z"/>
		<path d="M108.7,3v1.8c0,0.1,0,0.2,0.1,0.3c0.1,0.2,0.2,0.2,0.4,0.2c0.3,0,0.5-0.1,0.6-0.4c0.1-0.1,0.1-0.4,0.1-0.6V3h0.4v2.6h-0.4
			l0-0.4c-0.1,0.1-0.1,0.2-0.2,0.3c-0.2,0.1-0.4,0.2-0.6,0.2c-0.4,0-0.6-0.1-0.8-0.4c-0.1-0.1-0.1-0.3-0.1-0.5V3H108.7z"/>
	</g>
</g>
</svg>
