<?xml version="1.0" encoding="utf-8"?>
<!-- Generator: Adobe Illustrator 24.1.0, SVG Export Plug-In . SVG Version: 6.00 Build 0)  -->
<svg version="1.1" id="Capa_1" xmlns="http://www.w3.org/2000/svg" xmlns:xlink="http://www.w3.org/1999/xlink" x="0px" y="0px"
	 viewBox="0 0 68 74" style="enable-background:new 0 0 68 74;" xml:space="preserve">
<style type="text/css">
	.st0{fill-rule:evenodd;clip-rule:evenodd;}
</style>
<g id="Negro_4_">
	<g>
		<path d="M33.9,23.7c0.3,0,0.7-0.1,1-0.3c0.4-0.2,0.6-0.4,0.8-0.7c0.1-0.3,0.2-0.7,0.2-1.1c0-0.3-0.1-0.6-0.2-0.9
			c-0.2-0.3-0.4-0.5-0.7-0.7c-0.3-0.1-0.7-0.2-1.1-0.2c-0.4,0-1.1,0-1.9,0h-0.3v3.9h0.6C33,23.8,33.6,23.8,33.9,23.7z"/>
		<path d="M35.7,27.2C35.4,27.1,35,27,34.5,27c-0.5,0-1.2,0-2,0h-0.9v4.7h0.3c1.2,0,2.1,0,2.6,0c0.5,0,1-0.1,1.4-0.3
			c0.4-0.2,0.7-0.5,0.9-0.8c0.2-0.4,0.3-0.8,0.3-1.2c0-0.6-0.1-1-0.4-1.4C36.5,27.6,36.2,27.3,35.7,27.2z"/>
		<path d="M33.7,6.4c-8,0-14.4,8.6-14.4,19.2c0,10.6,6.5,19.2,14.4,19.2c8,0,14.4-8.6,14.4-19.2C48.1,15,41.6,6.4,33.7,6.4z
			 M41.5,31.8c-0.4,0.7-0.8,1.3-1.4,1.7c-0.7,0.6-1.5,0.9-2.3,1.2c-0.8,0.2-1.9,0.4-3.2,0.4h-7.6V16.4h6.7c1.4,0,2.4,0.1,3.1,0.2
			c0.7,0.1,1.4,0.3,2,0.7c0.7,0.4,1.2,0.8,1.5,1.4c0.3,0.6,0.5,1.3,0.5,2.1c0,0.9-0.2,1.7-0.7,2.4c-0.5,0.7-1.1,1.2-1.9,1.6v0.1
			c1.2,0.2,2.1,0.7,2.8,1.5c0.7,0.7,1.1,1.7,1.1,3C42,30.3,41.8,31.1,41.5,31.8z"/>
	</g>
	<path class="st0" d="M0.4,73.6v-19h6.4c1.6,0,2.9,0.3,3.9,1c1,0.7,1.5,2,1.5,3.8c0,1-0.2,1.9-0.7,2.7c-0.5,0.7-1.2,1.2-2.2,1.5v0.1
		c1.1,0.2,1.9,0.6,2.5,1.4c0.6,0.8,0.9,1.8,0.9,3.1c0,1-0.2,1.9-0.5,2.8c-0.4,0.8-1,1.5-1.9,2c-0.9,0.5-2.1,0.8-3.5,0.8H0.4z
		 M4.2,57.4v5h1.1c1,0,1.8-0.2,2.3-0.6c0.5-0.4,0.7-1,0.7-1.9c0-0.9-0.2-1.5-0.7-1.9c-0.5-0.4-1.2-0.6-2.1-0.6H4.2z M4.2,65v5.7h1.5
		c0.9,0,1.7-0.2,2.2-0.6c0.6-0.4,0.8-1.2,0.9-2.3c0-1.1-0.3-1.8-0.8-2.3C7.4,65.2,6.7,65,5.9,65H4.2z"/>
	<path class="st0" d="M15.8,73.6V59.3h3.7v14.4H15.8z M15.8,57.5v-3.1h3.7v3.1H15.8z"/>
	<rect x="22.8" y="54.6" class="st0" width="3.7" height="19"/>
	<path class="st0" d="M33.5,66.4c0,1.6,0.1,2.7,0.4,3.5c0.3,0.8,0.8,1.2,1.6,1.2c0.8,0,1.3-0.4,1.6-1.2c0.3-0.8,0.4-2,0.4-3.5
		c0-1.6-0.1-2.7-0.4-3.5c-0.3-0.8-0.8-1.2-1.6-1.2c-0.8,0-1.3,0.4-1.6,1.2C33.6,63.7,33.5,64.9,33.5,66.4z M29.8,73.6v-19h3.7v6h0.1
		c0.4-0.6,0.8-1,1.3-1.3c0.5-0.3,1.1-0.4,1.8-0.4c1.5,0,2.6,0.6,3.3,1.8c0.7,1.2,1.1,3.1,1.1,5.8c0,2.6-0.4,4.6-1.1,5.8
		c-0.7,1.2-1.8,1.8-3.3,1.8c-1.4,0-2.5-0.6-3.3-1.9h-0.1v1.5H29.8z"/>
	<path class="st0" d="M46.7,63.6h-3.3v-0.3c0-1.1,0.2-2,0.7-2.6c0.4-0.6,1.1-1.1,1.8-1.4c0.8-0.3,1.6-0.4,2.5-0.4
		c1.4,0,2.5,0.2,3.3,0.6c0.8,0.4,1.3,0.9,1.5,1.5c0.3,0.7,0.4,1.4,0.4,2.3v7.6c0,0.6,0,1.2,0.1,1.6c0.1,0.4,0.2,0.8,0.4,1.2h-3.5
		c-0.2-0.5-0.4-1-0.5-1.5h-0.1c-0.4,0.7-0.9,1.2-1.5,1.5C48,73.9,47.3,74,46.4,74c-0.8,0-1.5-0.2-2-0.6c-0.5-0.4-0.9-0.9-1.1-1.6
		c-0.2-0.6-0.3-1.3-0.3-1.9c0-1.3,0.3-2.3,0.9-3c0.6-0.7,1.5-1.2,2.8-1.5l2.1-0.6c0.5-0.1,0.9-0.3,1.1-0.6c0.2-0.3,0.3-0.6,0.3-1.1
		c0-0.5-0.1-1-0.4-1.3c-0.3-0.3-0.7-0.5-1.3-0.5c-0.6,0-1,0.2-1.3,0.5c-0.3,0.3-0.4,0.8-0.4,1.3V63.6z M50.1,69.3v-2.8
		c-0.3,0.2-0.5,0.3-0.8,0.5c-0.3,0.1-0.5,0.2-0.8,0.3c-0.7,0.2-1.3,0.4-1.6,0.8c-0.3,0.4-0.5,0.9-0.5,1.5c0,0.6,0.1,1,0.3,1.4
		c0.2,0.4,0.6,0.6,1.1,0.6c0.5,0,1-0.2,1.5-0.5C49.8,70.6,50.1,70,50.1,69.3z"/>
	<path class="st0" d="M56.3,66.4c0-2.5,0.4-4.3,1.2-5.6c0.9-1.3,2.3-1.9,4.4-1.9c1.5,0,2.6,0.2,3.4,0.8c0.8,0.6,1.4,1.4,1.7,2.5
		c0.3,1.1,0.5,2.5,0.5,4.2c0,2.5-0.4,4.3-1.2,5.6C65.5,73.3,64,74,62,74c-1.5,0-2.6-0.2-3.4-0.8c-0.8-0.6-1.4-1.4-1.7-2.5
		C56.5,69.5,56.3,68.1,56.3,66.4z M60,66.4c0,1.5,0.1,2.7,0.3,3.6c0.2,0.9,0.8,1.4,1.7,1.4c0.7,0,1.3-0.4,1.5-1.2
		c0.3-0.8,0.4-2.1,0.4-3.9c0-1.8-0.1-3.1-0.4-3.9c-0.3-0.8-0.8-1.2-1.5-1.2c-0.9,0-1.4,0.5-1.7,1.4C60.1,63.7,60,64.9,60,66.4z"/>
</g>
</svg>
