<?xml version="1.0" encoding="utf-8"?>
<!-- Generator: Adobe Illustrator 24.1.0, SVG Export Plug-In . SVG Version: 6.00 Build 0)  -->
<svg version="1.1" id="Capa_1" xmlns="http://www.w3.org/2000/svg" xmlns:xlink="http://www.w3.org/1999/xlink" x="0px" y="0px"
	 viewBox="0 0 132 74" style="enable-background:new 0 0 132 74;" xml:space="preserve">
<g>
	<g>
		<path d="M1.1,40.1h1.4c1.1,0,2,0.1,2.9,0.9c0.9,0.7,1.2,1.7,1.2,2.8c0,1.1-0.4,2.1-1.2,2.8c-0.9,0.8-1.8,0.9-3,0.9H1.1V40.1z
			 M2.5,46.8c0.9,0,1.7-0.1,2.4-0.8c0.6-0.6,0.9-1.4,0.9-2.2c0-0.9-0.3-1.7-1-2.2c-0.7-0.6-1.4-0.7-2.3-0.7H1.9v5.9H2.5z"/>
		<path d="M8.2,45.4c0,0.9,0.6,1.6,1.5,1.6c0.7,0,1.1-0.4,1.4-1l0.7,0.4c-0.4,0.8-1.2,1.3-2.2,1.3c-1.4,0-2.3-1.1-2.3-2.4
			c0-1.4,0.8-2.5,2.3-2.5c1.5,0,2.3,1.2,2.2,2.6H8.2z M11.1,44.7c-0.1-0.7-0.7-1.2-1.4-1.2c-0.7,0-1.3,0.5-1.4,1.2H11.1z"/>
		<path d="M14.9,44c-0.1-0.2-0.3-0.5-0.6-0.5c-0.3,0-0.6,0.2-0.6,0.5c0,0.4,0.5,0.6,1.1,0.8c0.5,0.2,1.1,0.6,1.1,1.3
			c0,0.9-0.7,1.5-1.6,1.5c-0.8,0-1.4-0.4-1.6-1.2l0.7-0.3c0.2,0.4,0.4,0.7,1,0.7c0.4,0,0.8-0.3,0.8-0.7c0-1-2.1-0.7-2.1-2.2
			c0-0.8,0.6-1.3,1.4-1.3c0.5,0,1,0.4,1.2,0.9L14.9,44z"/>
		<path d="M18.1,41.1c0,0.3-0.3,0.6-0.6,0.6c-0.3,0-0.6-0.2-0.6-0.6c0-0.3,0.3-0.6,0.6-0.6C17.8,40.6,18.1,40.8,18.1,41.1z
			 M17.9,47.6h-0.8v-4.7h0.8V47.6z"/>
		<path d="M23.8,47.3c0,0.7,0,1.4-0.5,2c-0.4,0.6-1.1,0.8-1.8,0.8c-1.3,0-2.3-0.8-2.3-2.1H20c0,0.9,0.6,1.4,1.5,1.4
			c1.2,0,1.5-0.9,1.5-2v-0.6h0c-0.4,0.5-1,0.8-1.6,0.8c-1.4,0-2.2-1.1-2.2-2.4c0-1.3,0.9-2.5,2.3-2.5c0.6,0,1.2,0.3,1.6,0.8h0v-0.7
			h0.8V47.3z M19.9,45.2c0,0.9,0.5,1.8,1.5,1.8c1,0,1.6-0.8,1.6-1.8c0-0.9-0.6-1.7-1.6-1.7C20.5,43.5,19.9,44.3,19.9,45.2z"/>
		<path d="M26.1,43.5L26.1,43.5c0.3-0.4,0.8-0.7,1.4-0.7c1.3,0,1.6,0.9,1.6,2v2.8h-0.8v-2.6c0-0.8-0.1-1.4-1-1.4
			c-1.1,0-1.2,1-1.2,1.8v2.2h-0.8v-4.7h0.8V43.5z"/>
		<path d="M1.9,59.5H1.1V52h1.1c1.4,0,2.7,0.4,2.7,2.1c0,1.2-0.7,2-1.9,2.1l2.4,3.4h-1l-2.3-3.3H1.9V59.5z M1.9,55.4h0.3
			c0.9,0,1.9-0.2,1.9-1.3c0-1.2-0.9-1.3-1.9-1.3H1.9V55.4z"/>
		<path d="M6.9,57.3c0,0.9,0.6,1.6,1.5,1.6c0.7,0,1.1-0.4,1.4-1l0.7,0.4c-0.4,0.8-1.2,1.3-2.2,1.3c-1.4,0-2.3-1.1-2.3-2.4
			c0-1.4,0.8-2.5,2.3-2.5c1.5,0,2.3,1.2,2.2,2.6H6.9z M9.7,56.6C9.6,56,9,55.4,8.3,55.4c-0.7,0-1.3,0.5-1.4,1.2H9.7z"/>
		<path d="M13.5,55.9c-0.1-0.2-0.3-0.5-0.6-0.5c-0.3,0-0.6,0.2-0.6,0.5c0,0.4,0.5,0.6,1.1,0.8c0.5,0.2,1.1,0.6,1.1,1.3
			c0,0.9-0.7,1.5-1.6,1.5c-0.8,0-1.4-0.4-1.6-1.2l0.7-0.3c0.2,0.4,0.4,0.7,1,0.7c0.4,0,0.8-0.3,0.8-0.7c0-1-2.1-0.7-2.1-2.2
			c0-0.8,0.6-1.3,1.4-1.3c0.5,0,1,0.4,1.2,0.9L13.5,55.9z"/>
		<path d="M16,57.3c0,0.9,0.6,1.6,1.5,1.6c0.7,0,1.1-0.4,1.4-1l0.7,0.4c-0.4,0.8-1.2,1.3-2.2,1.3c-1.4,0-2.3-1.1-2.3-2.4
			c0-1.4,0.8-2.5,2.3-2.5c1.5,0,2.3,1.2,2.2,2.6H16z M18.8,56.6c-0.1-0.7-0.7-1.2-1.4-1.2c-0.7,0-1.3,0.5-1.4,1.2H18.8z"/>
		<path d="M25,59.5h-0.8v-0.6h0c-0.4,0.5-1,0.8-1.6,0.8c-1.4,0-2.2-1.2-2.2-2.5c0-1.3,0.8-2.5,2.2-2.5c0.6,0,1.2,0.3,1.6,0.8h0v-0.7
			H25V59.5z M21.2,57.1c0,0.9,0.5,1.8,1.5,1.8c1,0,1.6-0.8,1.6-1.8c0-0.9-0.6-1.7-1.6-1.7C21.8,55.4,21.2,56.2,21.2,57.1z"/>
		<path d="M27.2,55.3L27.2,55.3c0.3-0.4,0.5-0.6,1.1-0.6c0.3,0,0.5,0.1,0.7,0.2l-0.4,0.7c-0.2-0.1-0.3-0.2-0.5-0.2
			c-0.9,0-0.9,1.1-0.9,1.7v2.3h-0.8v-4.7h0.8V55.3z"/>
		<path d="M33.3,56.2L33.3,56.2c-0.4-0.5-0.8-0.8-1.5-0.8c-1,0-1.6,0.8-1.6,1.7c0,0.9,0.6,1.7,1.6,1.7c0.7,0,1.1-0.3,1.5-0.8h0v1.1
			c-0.5,0.3-0.9,0.5-1.5,0.5c-1.4,0-2.5-1.1-2.5-2.5c0-1.4,1.1-2.5,2.5-2.5c0.5,0,1,0.2,1.4,0.5V56.2z"/>
		<path d="M35.3,51.3v4.1l0,0c0.3-0.4,0.8-0.7,1.3-0.7c1.3,0,1.6,0.9,1.6,2v2.8h-0.8v-2.6c0-0.8-0.1-1.4-1-1.4c-1.1,0-1.2,1-1.2,1.8
			v2.2h-0.8v-8.2H35.3z"/>
		<path d="M4.5,65.4c-0.3-0.5-0.7-0.8-1.3-0.8C2.5,64.5,2,65,2,65.7c0,0.6,0.7,0.9,1.2,1.2l0.5,0.2c1,0.4,1.8,0.9,1.8,2.1
			c0,1.3-1.1,2.3-2.4,2.3c-1.2,0-2.1-0.8-2.3-1.9l0.8-0.2c0.1,0.8,0.7,1.4,1.5,1.4c0.8,0,1.5-0.6,1.5-1.5c0-0.9-0.7-1.2-1.4-1.5
			l-0.5-0.2c-0.9-0.4-1.6-0.8-1.6-1.9c0-1.2,1-1.9,2.1-1.9c0.8,0,1.5,0.4,1.9,1.2L4.5,65.4z"/>
		<path d="M6.2,69.1c0-1.4,1.1-2.5,2.5-2.5c1.4,0,2.5,1.1,2.5,2.5c0,1.4-1.1,2.5-2.5,2.5C7.3,71.5,6.2,70.4,6.2,69.1z M7,69
			c0,1,0.7,1.7,1.7,1.7c1,0,1.7-0.8,1.7-1.7c0-0.9-0.7-1.7-1.7-1.7C7.7,67.3,7,68.1,7,69z"/>
		<path d="M15.7,68.1L15.7,68.1c-0.4-0.5-0.8-0.8-1.5-0.8c-1,0-1.6,0.8-1.6,1.7c0,0.9,0.6,1.7,1.6,1.7c0.7,0,1.1-0.3,1.5-0.8h0V71
			c-0.5,0.3-0.9,0.5-1.5,0.5c-1.4,0-2.5-1.1-2.5-2.5c0-1.4,1.1-2.5,2.5-2.5c0.5,0,1,0.2,1.4,0.5V68.1z"/>
		<path d="M18.1,65c0,0.3-0.3,0.6-0.6,0.6c-0.3,0-0.6-0.2-0.6-0.6c0-0.3,0.3-0.6,0.6-0.6C17.8,64.4,18.1,64.6,18.1,65z M17.9,71.4
			h-0.8v-4.7h0.8V71.4z"/>
		<path d="M20,69.2c0,0.9,0.6,1.6,1.5,1.6c0.7,0,1.1-0.4,1.4-1l0.7,0.4c-0.4,0.8-1.2,1.3-2.2,1.3c-1.4,0-2.3-1.1-2.3-2.4
			c0-1.4,0.8-2.5,2.3-2.5c1.5,0,2.3,1.2,2.2,2.6H20z M22.8,68.5c-0.1-0.7-0.7-1.2-1.4-1.2c-0.7,0-1.3,0.5-1.4,1.2H22.8z"/>
		<path d="M25.5,71.4h-0.8v-3.9h-0.5v-0.7h0.5V65h0.8v1.7h0.8v0.7h-0.8V71.4z"/>
		<path d="M26.3,66.7h0.9l1.6,3.3l1.5-3.3h0.9L27.9,74H27l1.5-3.1L26.3,66.7z"/>
	</g>
	<g>
		<path d="M98.4,38.8c0-10-6.4-14.1-15.7-14.1H70.6l-7.5-12.4h-0.6l18.5,30.7h0.6l-6.5-10.8h5.6c4.9,0,8.5,1.1,8.5,6.9
			c0,5.7-3.5,7.2-8.6,7.2h-4.9L91,71.6h11.1L88.8,51.8C95.1,50.7,98.4,44.7,98.4,38.8z"/>
		<path d="M49.9,24.6H36.8v2.9l-9.2-15.3H27l18.5,30.7h0.4V32.6h1.5c10.4,0,15.6,5.3,15.6,15.5c0,9.3-4.4,15.5-15.6,15.5h-1.5v8h3.9
			c13.4,0,22.7-10.2,22.7-23.4C72.5,34.8,63.4,24.6,49.9,24.6z"/>
	</g>
	<path d="M116.2,41.3l-17.5-29h-0.6l9,14.9c-2.7,2.6-4.3,6.3-4.3,10.4c0,7.3,4.4,10.3,10.5,12.8c3.7,1.4,8.2,2.8,8.2,7.7
		c0,3.6-2.3,6.8-6,6.8c-3.9,0-7.2-3.2-8.5-6.8l-5.9,5.8c3.2,5.4,8,9.1,14.4,9.1c9.6,0,15.4-6.7,15.4-16.1
		C130.9,45.7,121.7,44,116.2,41.3z M112.3,36.4c0-0.2,0-0.5,0.1-0.7l3.1,5.1C113.5,39.7,112.3,38.4,112.3,36.4z"/>
</g>
</svg>
